<svg id="Слой_1" data-name="Слой 1" xmlns="http://www.w3.org/2000/svg" width="25.7" height="20.48"><defs><style>.cls-2{fill:#fff}</style></defs><path d="M2.69.71H23a2 2 0 0 1 2 2v15.1a2 2 0 0 1-2 2H2.69a2 2 0 0 1-2-2V2.71a2 2 0 0 1 2-2zM.95 10.81h23.81" fill="none" stroke="#fff" stroke-linecap="round" stroke-linejoin="round" stroke-width="1.42"/><path class="cls-2" d="M297.16 392.07a2.74 2.74 0 0 1 .2-1.1 2 2 0 0 1 .4-.59 1.69 1.69 0 0 1 .55-.39 2.37 2.37 0 0 1 .93-.17 2 2 0 0 1 1.52.59 2.64 2.64 0 0 1 0 3.27 2 2 0 0 1-1.51.59 2 2 0 0 1-1.52-.59 2.23 2.23 0 0 1-.57-1.61zm.89 0a1.61 1.61 0 0 0 .34 1.11 1.16 1.16 0 0 0 1.71 0 1.65 1.65 0 0 0 .33-1.12 1.61 1.61 0 0 0-.33-1.1 1.09 1.09 0 0 0-.86-.36 1.11 1.11 0 0 0-.87.37 1.63 1.63 0 0 0-.33 1.11zm3.95 2.12v-4.3h1.83a3.13 3.13 0 0 1 1 .12 1 1 0 0 1 .5.41 1.24 1.24 0 0 1 .19.68 1.15 1.15 0 0 1-.28.8 1.36 1.36 0 0 1-.85.4 2 2 0 0 1 .46.36 4.87 4.87 0 0 1 .49.7l.52.84h-1l-.62-.94a5.89 5.89 0 0 0-.46-.63.67.67 0 0 0-.26-.18 1.46 1.46 0 0 0-.44 0h-.18v1.79h-.9zm.87-2.48h.64a3.31 3.31 0 0 0 .78-.05.46.46 0 0 0 .24-.18.56.56 0 0 0 .09-.32.52.52 0 0 0-.12-.35.53.53 0 0 0-.33-.17h-1.31v1.09zm3.47-1.81h1.58a3.07 3.07 0 0 1 .82.08 1.43 1.43 0 0 1 .65.4 1.87 1.87 0 0 1 .41.7 3.19 3.19 0 0 1 .14 1 2.82 2.82 0 0 1-.13.91 1.89 1.89 0 0 1-.46.76 1.52 1.52 0 0 1-.61.34 2.59 2.59 0 0 1-.77.09h-1.63v-4.3zm.87.73v2.84h.65a2.35 2.35 0 0 0 .52 0 .79.79 0 0 0 .35-.18.9.9 0 0 0 .23-.41 2.78 2.78 0 0 0 .04-.88 2.54 2.54 0 0 0-.09-.76 1 1 0 0 0-.24-.42.82.82 0 0 0-.4-.2 3.91 3.91 0 0 0-.71 0h-.39zm7.33 3.56h-.94l-.37-1h-1.72l-.36 1h-.92l1.67-4.3h.92l1.72 4.3zm-1.59-1.7l-.6-1.59-.58 1.59H313z" transform="translate(-293 -386)"/><path class="cls-2" d="M8.95 17.79v-4.3h2.95v.72H9.82v1.02h1.8v.73h-1.8v1.83h-.87zm3.66 0v-4.3h1.3l.77 2.93.76-2.93h1.31v4.3h-.81V14.4l-.85 3.39h-.83l-.85-3.39v3.39h-.8z"/></svg>