<svg id="Слой_1" data-name="Слой 1" xmlns="http://www.w3.org/2000/svg" width="23.83" height="22.67"><defs><style>.cls-1{fill:#fff;stroke:#fff;stroke-miterlimit:22.93;stroke-width:.57px;fill-rule:evenodd}</style></defs><path class="cls-1" d="M315.56 385.28h-16.25a1 1 0 0 0-1 1v4.48l-.74-1.11a1.15 1.15 0 0 0-1.55-.35l-1.53.92a2.24 2.24 0 0 0-1 1.33c-.56 2-.14 5.53 5 10.67 4.08 4.08 7.13 5.18 9.23 5.18a5.42 5.42 0 0 0 1.44-.19 2.25 2.25 0 0 0 1.33-1l.92-1.53a1.15 1.15 0 0 0-.35-1.55l-3.66-2.44a1.16 1.16 0 0 0-1.55.25l-1.07 1.37a.37.37 0 0 1-.47.1l-.2-.11a12.19 12.19 0 0 1-3.18-2.49l-.5-.51h15.16a1 1 0 0 0 1-1v-12a1 1 0 0 0-1-1zm-11.85 17.66l.2.11a1.14 1.14 0 0 0 1.46-.3l1.07-1.37a.38.38 0 0 1 .5-.08l3.66 2.44a.37.37 0 0 1 .11.5l-.92 1.53a1.47 1.47 0 0 1-.87.68c-1.83.5-5 .08-9.91-4.79s-5.29-8.08-4.79-9.91a1.47 1.47 0 0 1 .67-.87l1.53-.92a.38.38 0 0 1 .5.11l2.44 3.66a.38.38 0 0 1-.08.5l-1.37 1.07a1.14 1.14 0 0 0-.3 1.46l.11.2a17.68 17.68 0 0 0 6 6zm12.07-4.67a.21.21 0 0 1-.21.21H299.7a9.78 9.78 0 0 1-1.29-1.89l-.11-.2a.37.37 0 0 1 .1-.47l1.37-1.07a1.16 1.16 0 0 0 .25-1.55l-.92-1.38v-5.65a.21.21 0 0 1 .21-.21h16.25a.21.21 0 0 1 .21.21v12z" transform="translate(-293 -385)"/><path class="cls-1" d="M314.22 387.08l-6.48 4.92a.52.52 0 0 1-.62 0l-6.48-4.92a.39.39 0 1 0-.47.62l6.48 4.92a1.3 1.3 0 0 0 1.55 0l6.48-4.92a.39.39 0 0 0-.47-.62zm-10.1 5.57l-4 4.25a.39.39 0 0 0 .57.53l4-4.26a.39.39 0 0 0-.57-.53zm6.65 0a.39.39 0 0 0-.57.53l4 4.25a.39.39 0 0 0 .57-.53l-4-4.25z" transform="translate(-293 -385)"/></svg>