<svg id="Слой_1" data-name="Слой 1" xmlns="http://www.w3.org/2000/svg" width="24.16" height="24.16"><defs><style>.cls-1{fill:#fff;stroke:#fff;stroke-miterlimit:22.93;stroke-width:.45px;fill-rule:evenodd}</style></defs><path class="cls-1" d="M309.25 399a.46.46 0 0 0-.46.46v3.2a2.32 2.32 0 0 1-2.32 2.32h-5a.46.46 0 0 0-.46.46v.92l-1.11-1.11a.46.46 0 0 0-.42-.28h-3a2.32 2.32 0 0 1-2.32-2.32v-7.13a2.32 2.32 0 0 1 2.32-2.32h4.68a.46.46 0 1 0 0-.93h-4.68a3.25 3.25 0 0 0-3.24 3.24v7.13a3.25 3.25 0 0 0 3.24 3.24h2.77l1.9 1.9a.46.46 0 0 0 .33.14.46.46 0 0 0 .46-.46v-1.56h4.54a3.25 3.25 0 0 0 3.24-3.24v-3.2a.46.46 0 0 0-.46-.46z" transform="translate(-293 -384)"/><path class="cls-1" d="M310.21 384.23H309a6.73 6.73 0 0 0 0 13.46h1.17a6.75 6.75 0 0 0 1.71-.22l1.73 1.73a.46.46 0 0 0 .79-.33v-2.68a6.79 6.79 0 0 0 1.77-2.18 6.66 6.66 0 0 0 .73-3.05 6.74 6.74 0 0 0-6.73-6.73zm3.49 11.37a.46.46 0 0 0-.18.37v1.79l-1.13-1.13a.46.46 0 0 0-.33-.14h-.14a5.8 5.8 0 0 1-1.71.26H309a5.81 5.81 0 1 1 0-11.61h1.17a5.81 5.81 0 0 1 3.49 10.45z" transform="translate(-293 -384)"/><path class="cls-1" d="M311.71 389.29a2 2 0 0 0-1.82-1.82 1.94 1.94 0 0 0-1.48.52 2 2 0 0 0-.62 1.43.46.46 0 1 0 .93 0 1 1 0 0 1 1.11-1 1 1 0 0 1 .15 2 .88.88 0 0 0-.69.86v1.11a.46.46 0 1 0 .93 0v-1.08a2 2 0 0 0 1.49-2zm-1.63 4.63a.46.46 0 1 0 .14.33.47.47 0 0 0-.14-.33zm-4.08 4.66h-9.77a.46.46 0 1 0 0 .93H306a.46.46 0 0 0 0-.93zm.29 2.73a.46.46 0 1 0 .14.33.47.47 0 0 0-.14-.33zm-2.15-.13h-8a.46.46 0 1 0 0 .93h8a.46.46 0 0 0 0-.93zM303 396h-6.76a.46.46 0 1 0 0 .93H303a.46.46 0 1 0 0-.93z" transform="translate(-293 -384)"/></svg>