<svg id="Слой_1" data-name="Слой 1" xmlns="http://www.w3.org/2000/svg" width="23.67" height="22.98"><defs><style>.cls-1{fill:#fff;stroke:#fff;stroke-miterlimit:22.93;stroke-width:.28px}</style></defs><path class="cls-1" d="M312.82 390.39h-13l10.82-4.31a.49.49 0 1 0-.36-.9l-13.08 5.21h-.37a3.49 3.49 0 0 0-3.71 3.71v10a3.49 3.49 0 0 0 3.71 3.71h16a3.49 3.49 0 0 0 3.71-3.71v-10a3.48 3.48 0 0 0-3.71-3.72zm2.75 13.73a2.52 2.52 0 0 1-2.74 2.74h-16a2.52 2.52 0 0 1-2.74-2.74v-10a2.53 2.53 0 0 1 2.74-2.74h16a2.52 2.52 0 0 1 2.74 2.74v10z" transform="translate(-293 -385)"/><path class="cls-1" d="M297.95 396.66h13.78a.49.49 0 0 0 .49-.49v-2.8a.49.49 0 0 0-.49-.49h-13.78a.49.49 0 0 0-.49.49v2.8a.49.49 0 0 0 .49.49zm13.29-1h-3.43v-1.83h3.43v1.83zm-12.81-1.83h8.4v1.83h-8.4v-1.83zm12.03 4.48a3.6 3.6 0 1 0 3.6 3.6 3.6 3.6 0 0 0-3.6-3.6zm0 6.23a2.63 2.63 0 1 1 2.63-2.63 2.63 2.63 0 0 1-2.63 2.63zm-7-2.87a1.86 1.86 0 1 0 1.86 1.86 1.86 1.86 0 0 0-1.86-1.86zm0 2.74a.89.89 0 1 1 .89-.89.89.89 0 0 1-.89.89zm-4.81-2.74a1.86 1.86 0 1 0 1.86 1.86 1.86 1.86 0 0 0-1.86-1.86zm0 2.74a.89.89 0 1 1 .89-.89.89.89 0 0 1-.89.89z" transform="translate(-293 -385)"/></svg>