<svg id="Слой_1" data-name="Слой 1" xmlns="http://www.w3.org/2000/svg" width="18.53" height="23.53"><defs><style>.cls-1{fill:#fff;stroke:#fff;stroke-linecap:round;stroke-linejoin:round;stroke-width:.22px;fill-rule:evenodd}</style></defs><path class="cls-1" d="M312.1 388.16H310v-.94a.55.55 0 0 0-.64-.44h-1.64a2.48 2.48 0 0 0-2.47-1.67 2.53 2.53 0 0 0-2.47 1.67h-1.61a.52.52 0 0 0-.61.44v.94h-2.11a2.36 2.36 0 0 0-2.33 2.25v15.9a2.23 2.23 0 0 0 2.33 2.11h13.65a2.23 2.23 0 0 0 2.33-2.11v-15.9a2.36 2.36 0 0 0-2.33-2.25zm-10.44-.28h1.53a.61.61 0 0 0 .53-.5 1.61 1.61 0 0 1 1.53-1.25 1.58 1.58 0 0 1 1.5 1.25.61.61 0 0 0 .56.5h1.58v2.22h-7.22v-2.22zm11.66 18.43a1.13 1.13 0 0 1-1.22 1h-13.66a1.13 1.13 0 0 1-1.22-1v-15.9a1.25 1.25 0 0 1 1.22-1.14h2.11v1.42a.58.58 0 0 0 .61.53h8.19a.61.61 0 0 0 .64-.53v-1.42h2.11a1.25 1.25 0 0 1 1.22 1.14v15.9z" transform="translate(-296 -385)"/><path class="cls-1" d="M303.13 397.52a.55.55 0 0 0-.78 0l-1.78 1.69-.75-.78a.55.55 0 0 0-.78 0 .58.58 0 0 0 0 .81l1.14 1.17a.5.5 0 0 0 .39.17.56.56 0 0 0 .39-.17l2.16-2.05a.53.53 0 0 0 0-.75zm7.97 1.19h-6.38a.56.56 0 1 0 0 1.11h6.38a.56.56 0 0 0 0-1.11zm-7.97-5.63a.55.55 0 0 0-.78 0l-1.78 1.69-.75-.78a.55.55 0 0 0-.78 0 .58.58 0 0 0 0 .8l1.14 1.17a.5.5 0 0 0 .39.17.56.56 0 0 0 .39-.17l2.16-2.05a.53.53 0 0 0 0-.74zm7.97 1.19h-6.38a.56.56 0 1 0 0 1.11h6.38a.56.56 0 0 0 0-1.11zm-7.97 7.73a.55.55 0 0 0-.78 0l-1.78 1.69-.75-.78a.56.56 0 0 0-.78 0 .58.58 0 0 0 0 .81l1.14 1.17a.5.5 0 0 0 .39.17.56.56 0 0 0 .39-.17l2.16-2.05a.53.53 0 0 0 0-.75zm7.97 1.15h-6.38a.56.56 0 1 0 0 1.11h6.38a.56.56 0 0 0 0-1.11z" transform="translate(-296 -385)"/></svg>