<svg id="Слой_1" data-name="Слой 1" xmlns="http://www.w3.org/2000/svg" width="22.63" height="21.96"><defs><style>.cls-1{fill:#68183d;fill-rule:evenodd}</style></defs><path class="cls-1" d="M316.3 396.39a.45.45 0 0 0-.55.31 1.39 1.39 0 0 1-1.09.67 3.2 3.2 0 0 1-1.71-.43 4.65 4.65 0 0 0-2-.56 3.61 3.61 0 0 0-2 .69 9.06 9.06 0 0 0-1.68 1.63.45.45 0 0 0 0 .63.45.45 0 0 0 .63 0c.82-1 1.9-2.22 3.31-2a7.68 7.68 0 0 1 1.87.7 3.15 3.15 0 0 0 2 .2 2.12 2.12 0 0 0 1.5-1.24.45.45 0 0 0-.31-.55zm-13.17-4.69a4.88 4.88 0 0 0 1-1.92 2.75 2.75 0 0 0-.45-2 7 7 0 0 0-1.75-1.65.45.45 0 0 0-.61.16.45.45 0 0 0 .16.61c1 .74 2.23 1.77 1.63 3.15-.53 1.23-1.91 2.21-1.73 3.68a1.72 1.72 0 0 0 1.22 1.54.44.44 0 0 0 .24-.86.91.91 0 0 1-.58-1 3.86 3.86 0 0 1 .87-1.68zm6.36 1.08a2 2 0 0 0-.9-1.45 1.89 1.89 0 0 0-.89-.3 2.51 2.51 0 0 1 .85-1.28.46.46 0 0 0 .16-.61.45.45 0 0 0-.61-.16 3.62 3.62 0 0 0-1.35 2.18 2.66 2.66 0 0 0-1.39 1.16 4.32 4.32 0 0 0 .51 4.37.44.44 0 0 0 .77-.45 3.92 3.92 0 0 1-.74-2.86 2 2 0 0 1 .79-1.22 3.43 3.43 0 0 0 .41 1.39 1.29 1.29 0 0 0 1.65.75 1.51 1.51 0 0 0 .73-1.54zm-1 .61c-.24.34-.5 0-.63-.27a2.48 2.48 0 0 1-.3-1.08v-.12h.07a1 1 0 0 1 .87 1.47zm2.81.61a.44.44 0 0 0 0 .89.44.44 0 0 0 0-.89zm.55-1.29a.44.44 0 0 0 0 .89.44.44 0 0 0 0-.89zm.87 1.13a.44.44 0 0 0 0 .89.44.44 0 0 0 0-.89zM298 390.21a.44.44 0 0 0 0 .89.44.44 0 0 0 0-.89zm.52-1.28a.44.44 0 0 0 0 .89.44.44 0 0 0 0-.89zm.86 1.13a.44.44 0 0 0 0 .89.44.44 0 0 0 0-.89zm7.14 11.27l-5.89-5.89a.44.44 0 0 0-.71.12l-.53 1.06-5.39 10.7a.44.44 0 0 0 .6.6l11.81-5.92a.44.44 0 0 0 .12-.71zm-11.09 5.2l1.92-3.84.65 2.56-2.56 1.28zm7.32-3.65L302 401a.44.44 0 1 0-.82.34l.78 1.9-3.15 1.57-.81-3.34 1.79-3.59.49 1.2a.44.44 0 0 0 .41.28.44.44 0 0 0 .17 0 .44.44 0 0 0 .24-.58l-.79-1.92.16-.33 5 5-2.71 1.35zm12.05-2.48a1.8 1.8 0 1 0 1.8 1.79 1.8 1.8 0 0 0-1.8-1.79zm0 2.7a.91.91 0 1 1 .91-.91.91.91 0 0 1-.91.91zm-.48-15.19l-1.78-1.78a.44.44 0 0 0-.63 0l-1.78 1.78a.44.44 0 0 0 0 .63l1.78 1.78a.44.44 0 0 0 .63 0l1.78-1.78a.44.44 0 0 0 0-.63zm-2.1 1.47l-1.16-1.16 1.16-1.16 1.16 1.16-1.16 1.16z" transform="translate(-294 -386)"/><path class="cls-1" d="M301.08 399.63a.44.44 0 0 0 0 .89.44.44 0 0 0 0-.89z" transform="translate(-294 -386)"/></svg>