<svg id="Слой_1" data-name="Слой 1" xmlns="http://www.w3.org/2000/svg" width="23.95" height="23.95"><defs><style>.cls-1{fill:#fff;stroke:#fff;stroke-miterlimit:22.93;stroke-width:.51px;fill-rule:evenodd}</style></defs><path class="cls-1" d="M305 390.9a6.08 6.08 0 1 0 6 6.1 6.08 6.08 0 0 0-6-6.1zm0 11.28a5.21 5.21 0 1 1 5.21-5.21 5.21 5.21 0 0 1-5.21 5.21z" transform="translate(-293 -385)"/><path class="cls-1" d="M315.49 394.37h-.88a9.89 9.89 0 0 0-1-2.37l.62-.62a1.21 1.21 0 0 0 0-1.71l-2-2a1.24 1.24 0 0 0-1.71 0l-.62.62a9.93 9.93 0 0 0-2.37-1v-.88a1.21 1.21 0 0 0-1.21-1.21h-2.79a1.21 1.21 0 0 0-1.21 1.21v.88a9.93 9.93 0 0 0-2.37 1l-.62-.62a1.24 1.24 0 0 0-1.71 0l-2 2a1.21 1.21 0 0 0 0 1.71l.62.62a9.89 9.89 0 0 0-1 2.37h-.88a1.21 1.21 0 0 0-1.21 1.21v2.79a1.21 1.21 0 0 0 1.21 1.21h.88a9.93 9.93 0 0 0 1 2.37l-.62.62a1.21 1.21 0 0 0 0 1.71l2 2a1.24 1.24 0 0 0 1.71 0l.62-.62a10 10 0 0 0 2.37 1v.88a1.21 1.21 0 0 0 1.21 1.21h2.79a1.21 1.21 0 0 0 1.21-1.21v-.88a9.94 9.94 0 0 0 2.37-1l.62.62a1.24 1.24 0 0 0 1.71 0l2-2a1.21 1.21 0 0 0 0-1.71l-.62-.62a9.93 9.93 0 0 0 1-2.37h.88a1.21 1.21 0 0 0 1.21-1.21v-2.79a1.21 1.21 0 0 0-1.21-1.21zm.34 4a.34.34 0 0 1-.34.34h-1.56l-.08.34a9.06 9.06 0 0 1-1.13 2.74l-.18.29 1.1 1.1a.34.34 0 0 1 0 .48l-2 2a.34.34 0 0 1-.48 0l-1.1-1.1-.29.18a9.05 9.05 0 0 1-2.74 1.13l-.34.08v1.56a.34.34 0 0 1-.34.34h-2.79a.34.34 0 0 1-.34-.34v-1.56l-.34-.08a9.07 9.07 0 0 1-2.74-1.13l-.29-.18-1.1 1.1a.34.34 0 0 1-.48 0l-2-2a.34.34 0 0 1 0-.48l1.1-1.1-.18-.29a9 9 0 0 1-1.09-2.79l-.08-.34h-1.56a.34.34 0 0 1-.34-.34v-2.79a.34.34 0 0 1 .34-.34H296l.08-.34a9.05 9.05 0 0 1 1.13-2.74l.18-.29-1.1-1.1a.34.34 0 0 1 0-.48l2-2a.34.34 0 0 1 .48 0l1.1 1.1.29-.18a9 9 0 0 1 2.74-1.13l.34-.08v-1.56a.34.34 0 0 1 .34-.34h2.79a.34.34 0 0 1 .34.34V388l.29.1a9.06 9.06 0 0 1 2.74 1.13l.29.18 1.1-1.1a.34.34 0 0 1 .48 0l2 2a.34.34 0 0 1 0 .48l-1.1 1.1.18.29a9 9 0 0 1 1.13 2.74l.08.34h1.56a.34.34 0 0 1 .34.34v2.79z" transform="translate(-293 -385)"/><path class="cls-1" d="M305 392.63a4.34 4.34 0 1 0 4.34 4.34 4.34 4.34 0 0 0-4.34-4.34zm0 7.81a3.47 3.47 0 1 1 3.47-3.47 3.48 3.48 0 0 1-3.47 3.47z" transform="translate(-293 -385)"/></svg>