<svg id="Слой_1" data-name="Слой 1" xmlns="http://www.w3.org/2000/svg" width="14.47" height="22.03"><defs><style>.cls-1{fill:#68183d;fill-rule:evenodd}</style></defs><path class="cls-1" d="M311.95 392.35a.52.52 0 0 0-.52.52v3.23a6.2 6.2 0 0 1-12.4 0v-3.23a.52.52 0 1 0-1 0v3.23a7.24 7.24 0 0 0 6.72 7.21V406H302a.52.52 0 1 0 0 1h6.38a.52.52 0 1 0 0-1h-2.67v-2.68a7.24 7.24 0 0 0 6.72-7.21v-3.23a.52.52 0 0 0-.52-.52z" transform="translate(-298 -385)"/><path class="cls-1" d="M305.58 385h-.69a4.29 4.29 0 0 0-4.29 4.29v7.15a4.29 4.29 0 0 0 4.29 4.29h.69a4.29 4.29 0 0 0 4.29-4.29v-7.15a4.29 4.29 0 0 0-4.29-4.29zm3.25 5.63H307a.52.52 0 1 0 0 1h1.87v1.44H307a.52.52 0 0 0 0 1h1.87v1.44H307a.52.52 0 1 0 0 1h1.87a3.26 3.26 0 0 1-3.25 3.08h-.69a3.26 3.26 0 0 1-3.25-3.08h1.87a.52.52 0 1 0 0-1h-1.87v-1.44h1.87a.52.52 0 1 0 0-1h-1.87v-1.44h1.87a.52.52 0 1 0 0-1h-1.87v-1.34a3.26 3.26 0 0 1 1.84-2.93v1.46a.52.52 0 0 0 1 0v-1.76h1.44v1.76a.52.52 0 1 0 1 0v-1.46a3.26 3.26 0 0 1 1.84 2.93v1.34z" transform="translate(-298 -385)"/></svg>