<svg id="Слой_1" data-name="Слой 1" xmlns="http://www.w3.org/2000/svg" viewBox="0 0 25.7 20.48">
  <defs>
    <style>
      .cls-1 {
        fill: none;
        stroke: #fff;
        stroke-linecap: round;
        stroke-linejoin: round;
        stroke-width: 1.42px;
      }

      .cls-2 {
        fill: #fff;
      }
    </style>
  </defs>
  <title>about us</title>
  <g>
    <path class="cls-1" d="M295.69,386.71H316a2,2,0,0,1,2,2v15.1a2,2,0,0,1-2,2H295.69a2,2,0,0,1-2-2v-15.1a2,2,0,0,1,2-2h0Zm-1.74,10.1h23.81" transform="translate(-293 -386)"/>
    <path class="cls-2" d="M297.16,392.07a2.74,2.74,0,0,1,.2-1.1,2,2,0,0,1,.4-0.59,1.69,1.69,0,0,1,.55-0.39,2.37,2.37,0,0,1,.93-0.17,2,2,0,0,1,1.52.59,2.64,2.64,0,0,1,0,3.27,2,2,0,0,1-1.51.59,2,2,0,0,1-1.52-.59,2.23,2.23,0,0,1-.57-1.61h0Zm0.89,0a1.61,1.61,0,0,0,.34,1.11,1.16,1.16,0,0,0,1.71,0,1.65,1.65,0,0,0,.33-1.12,1.61,1.61,0,0,0-.33-1.1,1.09,1.09,0,0,0-.86-0.36,1.11,1.11,0,0,0-.87.37,1.63,1.63,0,0,0-.33,1.11h0Z" transform="translate(-293 -386)"/>
    <path class="cls-2" d="M302,394.19v-4.3h1.83a3.13,3.13,0,0,1,1,.12,1,1,0,0,1,.5.41,1.24,1.24,0,0,1,.19.68,1.15,1.15,0,0,1-.28.8,1.36,1.36,0,0,1-.85.4,2,2,0,0,1,.46.36,4.87,4.87,0,0,1,.49.7l0.52,0.84h-1l-0.62-.94a5.89,5.89,0,0,0-.46-0.63,0.67,0.67,0,0,0-.26-0.18,1.46,1.46,0,0,0-.44,0h-0.18v1.79H302Zm0.87-2.48h0.64a3.31,3.31,0,0,0,.78-0.05,0.46,0.46,0,0,0,.24-0.18,0.56,0.56,0,0,0,.09-0.32,0.52,0.52,0,0,0-.12-0.35,0.53,0.53,0,0,0-.33-0.17l-0.63,0h-0.68v1.09h0Z" transform="translate(-293 -386)"/>
    <path class="cls-2" d="M306.34,389.9h1.58a3.07,3.07,0,0,1,.82.08,1.43,1.43,0,0,1,.65.4,1.87,1.87,0,0,1,.41.7,3.19,3.19,0,0,1,.14,1,2.82,2.82,0,0,1-.13.91,1.89,1.89,0,0,1-.46.76,1.52,1.52,0,0,1-.61.34,2.59,2.59,0,0,1-.77.09h-1.63v-4.3h0Zm0.87,0.73v2.84h0.65a2.35,2.35,0,0,0,.52,0,0.79,0.79,0,0,0,.35-0.18,0.9,0.9,0,0,0,.23-0.41A2.78,2.78,0,0,0,309,392a2.54,2.54,0,0,0-.09-0.76,1,1,0,0,0-.24-0.42,0.82,0.82,0,0,0-.4-0.2,3.91,3.91,0,0,0-.71,0h-0.39Z" transform="translate(-293 -386)"/>
    <path class="cls-2" d="M314.54,394.19H313.6l-0.37-1h-1.72l-0.36,1h-0.92l1.67-4.3h0.92l1.72,4.3h0Zm-1.59-1.7-0.6-1.59-0.58,1.59H313Z" transform="translate(-293 -386)"/>
    <polygon class="cls-2" points="8.95 17.79 8.95 13.49 11.9 13.49 11.9 14.21 9.82 14.21 9.82 15.23 11.62 15.23 11.62 15.96 9.82 15.96 9.82 17.79 8.95 17.79 8.95 17.79"/>
    <polygon class="cls-2" points="12.61 17.79 12.61 13.49 13.91 13.49 14.68 16.42 15.44 13.49 16.75 13.49 16.75 17.79 15.94 17.79 15.94 14.4 15.09 17.79 14.26 17.79 13.41 14.4 13.41 17.79 12.61 17.79 12.61 17.79"/>
  </g>
</svg>
