<svg id="Слой_1" data-name="Слой 1" xmlns="http://www.w3.org/2000/svg" viewBox="0 0 24.16 24.16">
  <defs>
    <style>
      .cls-1 {
        fill: #fff;
        stroke: #fff;
        stroke-miterlimit: 22.93;
        stroke-width: 0.45px;
        fill-rule: evenodd;
      }
    </style>
  </defs>
  <title>issues</title>
  <g>
    <path class="cls-1" d="M309.25,399a0.46,0.46,0,0,0-.46.46v3.2a2.32,2.32,0,0,1-2.32,2.32h-5a0.46,0.46,0,0,0-.46.46v0.92l-1.11-1.11a0.46,0.46,0,0,0-.42-0.28h-3a2.32,2.32,0,0,1-2.32-2.32v-7.13a2.32,2.32,0,0,1,2.32-2.32h4.68a0.46,0.46,0,1,0,0-.93h-4.68a3.25,3.25,0,0,0-3.24,3.24v7.13a3.25,3.25,0,0,0,3.24,3.24h2.77l1.9,1.9a0.46,0.46,0,0,0,.33.14,0.46,0.46,0,0,0,.46-0.46V405.9h4.54a3.25,3.25,0,0,0,3.24-3.24v-3.2a0.46,0.46,0,0,0-.46-0.46h0Z" transform="translate(-293 -384)"/>
    <path class="cls-1" d="M310.21,384.23H309a6.73,6.73,0,0,0,0,13.46h1.17a6.75,6.75,0,0,0,1.71-.22l1.73,1.73a0.46,0.46,0,0,0,.79-0.33v-2.68a6.79,6.79,0,0,0,1.77-2.18,6.66,6.66,0,0,0,.73-3.05,6.74,6.74,0,0,0-6.73-6.73h0Zm3.49,11.37a0.46,0.46,0,0,0-.18.37v1.79l-1.13-1.13a0.46,0.46,0,0,0-.33-0.14l-0.14,0a5.8,5.8,0,0,1-1.71.26H309a5.81,5.81,0,1,1,0-11.61h1.17a5.81,5.81,0,0,1,3.49,10.45h0Z" transform="translate(-293 -384)"/>
    <path class="cls-1" d="M311.71,389.29a2,2,0,0,0-1.82-1.82,1.94,1.94,0,0,0-1.48.52,2,2,0,0,0-.62,1.43,0.46,0.46,0,1,0,.93,0,1,1,0,0,1,1.11-1,1,1,0,0,1,.15,2,0.88,0.88,0,0,0-.69.86v1.11a0.46,0.46,0,1,0,.93,0v-1.08a2,2,0,0,0,1.49-2h0Z" transform="translate(-293 -384)"/>
    <path class="cls-1" d="M310.08,393.92a0.46,0.46,0,1,0,.14.33,0.47,0.47,0,0,0-.14-0.33h0Z" transform="translate(-293 -384)"/>
    <path class="cls-1" d="M306,398.58h-9.77a0.46,0.46,0,1,0,0,.93H306a0.46,0.46,0,0,0,0-.93h0Z" transform="translate(-293 -384)"/>
    <path class="cls-1" d="M306.29,401.31a0.46,0.46,0,1,0,.14.33,0.47,0.47,0,0,0-.14-0.33h0Z" transform="translate(-293 -384)"/>
    <path class="cls-1" d="M304.14,401.18h-8a0.46,0.46,0,1,0,0,.93h8a0.46,0.46,0,0,0,0-.93h0Z" transform="translate(-293 -384)"/>
    <path class="cls-1" d="M303,396h-6.76a0.46,0.46,0,1,0,0,.93H303a0.46,0.46,0,1,0,0-.93h0Z" transform="translate(-293 -384)"/>
  </g>
</svg>
