<svg id="Слой_1" data-name="Слой 1" xmlns="http://www.w3.org/2000/svg" width="48.66" height="48.66" viewBox="0 0 48.66 48.66">
  <defs>
    <style>
      .cls-1 {
        fill: #fff;
      }
    </style>
  </defs>
  <title>play</title>
  <g>
    <path class="cls-1" d="M305.33,372h0.56a1.07,1.07,0,0,1,.07,2.13,22.2,22.2,0,1,0,11,3.25c-1.66-1-.26-2.67.9-1.94A24.34,24.34,0,1,1,305.33,372h0Z" transform="translate(-281 -372)"/>
    <path class="cls-1" d="M300.17,407.51a1.06,1.06,0,0,1-2.13,0V386.2a1.06,1.06,0,0,1,1.68-.87l16.51,10.33a1.06,1.06,0,0,1,0,1.78l-11.35,7.64a1.06,1.06,0,0,1-1.19-1.76l10-6.73-13.55-8.48v19.39h0Z" transform="translate(-281 -372)"/>
  </g>
</svg>
