<svg id="Слой_1" data-name="Слой 1" xmlns="http://www.w3.org/2000/svg" width="23.67" height="22.98" viewBox="0 0 23.67 22.98">
  <defs>
    <style>
      .cls-1 {
        fill: #fff;
        stroke: #fff;
        stroke-miterlimit: 22.93;
        stroke-width: 0.28px;
      }
    </style>
  </defs>
  <title>radio</title>
  <g>
    <path class="cls-1" d="M312.82,390.39h-13l10.82-4.31a0.49,0.49,0,1,0-.36-0.9l-13.08,5.21h-0.37a3.49,3.49,0,0,0-3.71,3.71v10a3.49,3.49,0,0,0,3.71,3.71h16a3.49,3.49,0,0,0,3.71-3.71v-10a3.48,3.48,0,0,0-3.71-3.72h0Zm2.75,13.73a2.52,2.52,0,0,1-2.74,2.74h-16a2.52,2.52,0,0,1-2.74-2.74v-10a2.53,2.53,0,0,1,2.74-2.74h16a2.52,2.52,0,0,1,2.74,2.74v10h0Z" transform="translate(-293 -385)"/>
    <path class="cls-1" d="M297.95,396.66h13.78a0.49,0.49,0,0,0,.49-0.49v-2.8a0.49,0.49,0,0,0-.49-0.49H297.95a0.49,0.49,0,0,0-.49.49v2.8a0.49,0.49,0,0,0,.49.49h0Zm13.29-1h-3.43v-1.83h3.43v1.83h0Zm-12.81-1.83h8.4v1.83h-8.4v-1.83h0Z" transform="translate(-293 -385)"/>
    <path class="cls-1" d="M310.46,398.31a3.6,3.6,0,1,0,3.6,3.6,3.6,3.6,0,0,0-3.6-3.6h0Zm0,6.23a2.63,2.63,0,1,1,2.63-2.63,2.63,2.63,0,0,1-2.63,2.63h0Z" transform="translate(-293 -385)"/>
    <path class="cls-1" d="M303.46,401.67a1.86,1.86,0,1,0,1.86,1.86,1.86,1.86,0,0,0-1.86-1.86h0Zm0,2.74a0.89,0.89,0,1,1,.89-0.89,0.89,0.89,0,0,1-.89.89h0Z" transform="translate(-293 -385)"/>
    <path class="cls-1" d="M298.65,401.67a1.86,1.86,0,1,0,1.86,1.86,1.86,1.86,0,0,0-1.86-1.86h0Zm0,2.74a0.89,0.89,0,1,1,.89-0.89,0.89,0.89,0,0,1-.89.89h0Z" transform="translate(-293 -385)"/>
  </g>
</svg>
