<svg id="Слой_1" data-name="Слой 1" xmlns="http://www.w3.org/2000/svg" width="18.53" height="23.53" viewBox="0 0 18.53 23.53">
  <defs>
    <style>
      .cls-1 {
        fill: #fff;
        stroke: #fff;
        stroke-linecap: round;
        stroke-linejoin: round;
        stroke-width: 0.22px;
        fill-rule: evenodd;
      }
    </style>
  </defs>
  <title>regulations</title>
  <g>
    <path class="cls-1" d="M312.1,388.16H310v-0.94a0.55,0.55,0,0,0-.64-0.44h-1.64a2.48,2.48,0,0,0-2.47-1.67,2.53,2.53,0,0,0-2.47,1.67h-1.61a0.52,0.52,0,0,0-.61.44v0.94h-2.11a2.36,2.36,0,0,0-2.33,2.25v15.9a2.23,2.23,0,0,0,2.33,2.11H312.1a2.23,2.23,0,0,0,2.33-2.11v-15.9a2.36,2.36,0,0,0-2.33-2.25h0Zm-10.44-.28h1.53a0.61,0.61,0,0,0,.53-0.5,1.61,1.61,0,0,1,1.53-1.25,1.58,1.58,0,0,1,1.5,1.25,0.61,0.61,0,0,0,.56.5h1.58v2.22h-7.22v-2.22h0Zm11.66,18.43a1.13,1.13,0,0,1-1.22,1H298.44a1.13,1.13,0,0,1-1.22-1v-15.9a1.25,1.25,0,0,1,1.22-1.14h2.11v1.42a0.58,0.58,0,0,0,.61.53h8.19a0.61,0.61,0,0,0,.64-0.53v-1.42h2.11a1.25,1.25,0,0,1,1.22,1.14v15.9h0Z" transform="translate(-296 -385)"/>
    <path class="cls-1" d="M303.13,397.52a0.55,0.55,0,0,0-.78,0l-1.78,1.69-0.75-.78a0.55,0.55,0,0,0-.78,0,0.58,0.58,0,0,0,0,.81l1.14,1.17a0.5,0.5,0,0,0,.39.17,0.56,0.56,0,0,0,.39-0.17l2.16-2.05a0.53,0.53,0,0,0,0-.75l0,0h0Z" transform="translate(-296 -385)"/>
    <path class="cls-1" d="M311.1,398.71h-6.38a0.56,0.56,0,1,0,0,1.11h6.38a0.56,0.56,0,0,0,0-1.11h0Z" transform="translate(-296 -385)"/>
    <path class="cls-1" d="M303.13,393.08a0.55,0.55,0,0,0-.78,0l-1.78,1.69-0.75-.78a0.55,0.55,0,0,0-.78,0,0.58,0.58,0,0,0,0,.8l1.14,1.17a0.5,0.5,0,0,0,.39.17,0.56,0.56,0,0,0,.39-0.17l2.16-2.05a0.53,0.53,0,0,0,0-.74l0,0h0Z" transform="translate(-296 -385)"/>
    <path class="cls-1" d="M311.1,394.27h-6.38a0.56,0.56,0,1,0,0,1.11h6.38a0.56,0.56,0,0,0,0-1.11h0Z" transform="translate(-296 -385)"/>
    <path class="cls-1" d="M303.13,402a0.55,0.55,0,0,0-.78,0l-1.78,1.69-0.75-.78a0.56,0.56,0,0,0-.78,0,0.58,0.58,0,0,0,0,.81l1.14,1.17a0.5,0.5,0,0,0,.39.17,0.56,0.56,0,0,0,.39-0.17l2.16-2.05a0.53,0.53,0,0,0,0-.75l0,0h0Z" transform="translate(-296 -385)"/>
    <path class="cls-1" d="M311.1,403.15h-6.38a0.56,0.56,0,1,0,0,1.11h6.38a0.56,0.56,0,0,0,0-1.11h0Z" transform="translate(-296 -385)"/>
  </g>
</svg>
