<svg id="Слой_1" data-name="Слой 1" xmlns="http://www.w3.org/2000/svg" viewBox="0 0 22.63 21.96">
  <defs>
    <style>
      .cls-1 {
        fill: #68183d;
        fill-rule: evenodd;
      }
    </style>
  </defs>
  <title>send congratulations</title>
  <g>
    <path class="cls-1" d="M316.3,396.39a0.45,0.45,0,0,0-.55.31,1.39,1.39,0,0,1-1.09.67,3.2,3.2,0,0,1-1.71-.43,4.65,4.65,0,0,0-2-.56,3.61,3.61,0,0,0-2,.69,9.06,9.06,0,0,0-1.68,1.63,0.45,0.45,0,0,0,0,.63,0.45,0.45,0,0,0,.63,0c0.82-1,1.9-2.22,3.31-2a7.68,7.68,0,0,1,1.87.7,3.15,3.15,0,0,0,2,.2,2.12,2.12,0,0,0,1.5-1.24,0.45,0.45,0,0,0-.31-0.55h0Z" transform="translate(-294 -386)"/>
    <path class="cls-1" d="M303.13,391.7a4.88,4.88,0,0,0,1-1.92,2.75,2.75,0,0,0-.45-2,7,7,0,0,0-1.75-1.65,0.45,0.45,0,0,0-.61.16,0.45,0.45,0,0,0,.16.61c1,0.74,2.23,1.77,1.63,3.15-0.53,1.23-1.91,2.21-1.73,3.68a1.72,1.72,0,0,0,1.22,1.54,0.44,0.44,0,0,0,.24-0.86,0.91,0.91,0,0,1-.58-1,3.86,3.86,0,0,1,.87-1.68h0Z" transform="translate(-294 -386)"/>
    <path class="cls-1" d="M309.49,392.78a2,2,0,0,0-.9-1.45,1.89,1.89,0,0,0-.89-0.3,2.51,2.51,0,0,1,.85-1.28,0.46,0.46,0,0,0,.16-0.61,0.45,0.45,0,0,0-.61-0.16,3.62,3.62,0,0,0-1.35,2.18,2.66,2.66,0,0,0-1.39,1.16,4.32,4.32,0,0,0,.51,4.37,0.44,0.44,0,0,0,.77-0.45,3.92,3.92,0,0,1-.74-2.86,2,2,0,0,1,.79-1.22,3.43,3.43,0,0,0,.41,1.39,1.29,1.29,0,0,0,1.65.75,1.51,1.51,0,0,0,.73-1.54h0Zm-1,.61c-0.24.34-.5,0-0.63-0.27a2.48,2.48,0,0,1-.3-1.08s0-.08,0-0.12h0.07a1,1,0,0,1,.87,1.47h0Z" transform="translate(-294 -386)"/>
    <path class="cls-1" d="M311.3,394a0.44,0.44,0,0,0,0,.89,0.44,0.44,0,0,0,0-.89h0Z" transform="translate(-294 -386)"/>
    <path class="cls-1" d="M311.85,392.71a0.44,0.44,0,0,0,0,.89,0.44,0.44,0,0,0,0-.89h0Z" transform="translate(-294 -386)"/>
    <path class="cls-1" d="M312.72,393.84a0.44,0.44,0,0,0,0,.89,0.44,0.44,0,0,0,0-.89h0Z" transform="translate(-294 -386)"/>
    <path class="cls-1" d="M298,390.21a0.44,0.44,0,0,0,0,.89,0.44,0.44,0,0,0,0-.89h0Z" transform="translate(-294 -386)"/>
    <path class="cls-1" d="M298.52,388.93a0.44,0.44,0,0,0,0,.89,0.44,0.44,0,0,0,0-.89h0Z" transform="translate(-294 -386)"/>
    <path class="cls-1" d="M299.38,390.06a0.44,0.44,0,0,0,0,.89,0.44,0.44,0,0,0,0-.89h0Z" transform="translate(-294 -386)"/>
    <path class="cls-1" d="M306.52,401.33l-5.89-5.89a0.44,0.44,0,0,0-.71.12l-0.53,1.06L294,407.32a0.44,0.44,0,0,0,.6.6L306.41,402a0.44,0.44,0,0,0,.12-0.71h0Zm-11.09,5.2,1.92-3.84,0.65,2.56-2.56,1.28h0Zm7.32-3.65L302,401a0.44,0.44,0,1,0-.82.34l0.78,1.9-3.15,1.57L298,401.47l1.79-3.59,0.49,1.2a0.44,0.44,0,0,0,.41.28,0.44,0.44,0,0,0,.17,0,0.44,0.44,0,0,0,.24-0.58l-0.79-1.92,0.16-.33,5,5-2.71,1.35h0Z" transform="translate(-294 -386)"/>
    <path class="cls-1" d="M314.8,400.4a1.8,1.8,0,1,0,1.8,1.79,1.8,1.8,0,0,0-1.8-1.79h0Zm0,2.7a0.91,0.91,0,1,1,.91-0.91,0.91,0.91,0,0,1-.91.91h0Z" transform="translate(-294 -386)"/>
    <path class="cls-1" d="M314.32,387.91l-1.78-1.78a0.44,0.44,0,0,0-.63,0l-1.78,1.78a0.44,0.44,0,0,0,0,.63l1.78,1.78a0.44,0.44,0,0,0,.63,0l1.78-1.78a0.44,0.44,0,0,0,0-.63h0Zm-2.1,1.47-1.16-1.16,1.16-1.16,1.16,1.16-1.16,1.16h0Z" transform="translate(-294 -386)"/>
    <path class="cls-1" d="M301.08,399.63a0.44,0.44,0,0,0,0,.89,0.44,0.44,0,0,0,0-.89h0Z" transform="translate(-294 -386)"/>
  </g>
</svg>
