<svg id="Слой_1" data-name="Слой 1" xmlns="http://www.w3.org/2000/svg" width="23.95" height="23.95" viewBox="0 0 23.95 23.95">
  <defs>
    <style>
      .cls-1 {
        fill: #fff;
        stroke: #fff;
        stroke-miterlimit: 22.93;
        stroke-width: 0.51px;
        fill-rule: evenodd;
      }
    </style>
  </defs>
  <title>settings</title>
  <g>
    <path class="cls-1" d="M305,390.9A6.08,6.08,0,1,0,311,397,6.08,6.08,0,0,0,305,390.9h0Zm0,11.28a5.21,5.21,0,1,1,5.21-5.21,5.21,5.21,0,0,1-5.21,5.21h0Z" transform="translate(-293 -385)"/>
    <path class="cls-1" d="M315.49,394.37h-0.88a9.89,9.89,0,0,0-1-2.37l0.62-.62a1.21,1.21,0,0,0,0-1.71l-2-2a1.24,1.24,0,0,0-1.71,0l-0.62.62a9.93,9.93,0,0,0-2.37-1v-0.88a1.21,1.21,0,0,0-1.21-1.21h-2.79a1.21,1.21,0,0,0-1.21,1.21v0.88a9.93,9.93,0,0,0-2.37,1l-0.62-.62a1.24,1.24,0,0,0-1.71,0l-2,2a1.21,1.21,0,0,0,0,1.71l0.62,0.62a9.89,9.89,0,0,0-1,2.37h-0.88a1.21,1.21,0,0,0-1.21,1.21v2.79a1.21,1.21,0,0,0,1.21,1.21h0.88a9.93,9.93,0,0,0,1,2.37l-0.62.62a1.21,1.21,0,0,0,0,1.71l2,2a1.24,1.24,0,0,0,1.71,0l0.62-.62a10,10,0,0,0,2.37,1v0.88a1.21,1.21,0,0,0,1.21,1.21h2.79a1.21,1.21,0,0,0,1.21-1.21v-0.88a9.94,9.94,0,0,0,2.37-1l0.62,0.62a1.24,1.24,0,0,0,1.71,0l2-2a1.21,1.21,0,0,0,0-1.71l-0.62-.62a9.93,9.93,0,0,0,1-2.37h0.88a1.21,1.21,0,0,0,1.21-1.21v-2.79a1.21,1.21,0,0,0-1.21-1.21h0Zm0.34,4a0.34,0.34,0,0,1-.34.34h-1.56l-0.08.34a9.06,9.06,0,0,1-1.13,2.74l-0.18.29,1.1,1.1a0.34,0.34,0,0,1,0,.48l-2,2a0.34,0.34,0,0,1-.48,0l-1.1-1.1-0.29.18a9.05,9.05,0,0,1-2.74,1.13l-0.34.08v1.56a0.34,0.34,0,0,1-.34.34h-2.79a0.34,0.34,0,0,1-.34-0.34v-1.56l-0.34-.08a9.07,9.07,0,0,1-2.74-1.13l-0.29-.18-1.1,1.1a0.34,0.34,0,0,1-.48,0l-2-2a0.34,0.34,0,0,1,0-.48l1.1-1.1-0.18-.29A9,9,0,0,1,296.1,399l-0.08-.34h-1.56a0.34,0.34,0,0,1-.34-0.34v-2.79a0.34,0.34,0,0,1,.34-0.34H296l0.08-.34a9.05,9.05,0,0,1,1.13-2.74l0.18-.29-1.1-1.1a0.34,0.34,0,0,1,0-.48l2-2a0.34,0.34,0,0,1,.48,0l1.1,1.1,0.29-.18a9,9,0,0,1,2.74-1.13l0.34-.08v-1.56a0.34,0.34,0,0,1,.34-0.34h2.79a0.34,0.34,0,0,1,.34.34V388L307,388.1a9.06,9.06,0,0,1,2.74,1.13l0.29,0.18,1.1-1.1a0.34,0.34,0,0,1,.48,0l2,2a0.34,0.34,0,0,1,0,.48l-1.1,1.1,0.18,0.29a9,9,0,0,1,1.13,2.74l0.08,0.34h1.56a0.34,0.34,0,0,1,.34.34v2.79h0Z" transform="translate(-293 -385)"/>
    <path class="cls-1" d="M305,392.63a4.34,4.34,0,1,0,4.34,4.34,4.34,4.34,0,0,0-4.34-4.34h0Zm0,7.81a3.47,3.47,0,1,1,3.47-3.47,3.48,3.48,0,0,1-3.47,3.47h0Z" transform="translate(-293 -385)"/>
  </g>
</svg>
